<svg width="12" height="11" viewBox="0 0 12 11" fill="none" xmlns="http://www.w3.org/2000/svg">
<path d="M1 1.26985L0.699729 0.870053C0.573985 0.964494 0.5 1.11259 0.5 1.26985H1ZM10.2171 10.5V11C10.3647 11 10.5048 10.9348 10.5998 10.8218L10.2171 10.5ZM1.71601 0.732087L1.41573 0.33229L1.41573 0.33229L1.71601 0.732087ZM3.55053 1.512L3.05438 1.57393V1.57393L3.55053 1.512ZM3.81046 3.59434L4.30661 3.53241L3.81046 3.59434ZM3.4819 4.55328L3.1281 4.19998L3.4819 4.55328ZM10.7279 9.89263L11.1106 10.2144L10.7279 9.89263ZM10.0134 8.00784L10.0859 7.51312L10.0134 8.00784ZM7.90921 7.69947L7.83671 8.19418L7.90921 7.69947ZM6.92769 8.02524L7.2815 8.37854L6.92769 8.02524ZM0.5 1.26985V2.42362H1.5V1.26985H0.5ZM9.06499 11H10.2171V10H9.06499V11ZM0.5 2.42362C0.5 7.15956 4.33401 11 9.06499 11V10C4.88763 10 1.5 6.6086 1.5 2.42362H0.5ZM1.30027 1.66965L2.01628 1.13188L1.41573 0.33229L0.699729 0.870053L1.30027 1.66965ZM3.05438 1.57393L3.31431 3.65627L4.30661 3.53241L4.04668 1.45006L3.05438 1.57393ZM3.1281 4.19998L1.79834 5.53162L2.50594 6.23823L3.83571 4.90659L3.1281 4.19998ZM3.31431 3.65627C3.33933 3.85673 3.2705 4.05738 3.1281 4.19998L3.83571 4.90659C4.19611 4.54567 4.36979 4.03853 4.30661 3.53241L3.31431 3.65627ZM2.01628 1.13188C2.41606 0.831625 2.99211 1.07502 3.05438 1.57393L4.04668 1.45006C3.88951 0.190876 2.43138 -0.430519 1.41573 0.33229L2.01628 1.13188ZM10.5998 10.8218L11.1106 10.2144L10.3452 9.57083L9.83445 10.1782L10.5998 10.8218ZM10.0859 7.51312L7.98171 7.20475L7.83671 8.19418L9.94092 8.50255L10.0859 7.51312ZM6.57389 7.67193L5.25476 8.99293L5.96237 9.69954L7.2815 8.37854L6.57389 7.67193ZM7.98171 7.20475C7.46493 7.12902 6.94295 7.30235 6.57389 7.67193L7.2815 8.37854C7.42725 8.23258 7.63311 8.16434 7.83671 8.19418L7.98171 7.20475ZM11.1106 10.2144C11.9435 9.22388 11.3677 7.70096 10.0859 7.51312L9.94092 8.50255C10.4458 8.57654 10.6753 9.17823 10.3452 9.57083L11.1106 10.2144Z" fill="#3D3D3D"/>
</svg>
