<svg width="87" height="45" viewBox="0 0 87 45" fill="none" xmlns="http://www.w3.org/2000/svg">
<g clip-path="url(#clip0)">
<path d="M12.0975 35.0591L7.785 27.4991H5.21246V35.0591H0V11.8555H8.10004C13.5525 11.8555 16.845 14.9073 16.845 19.6773C16.845 22.8273 15.42 25.2164 12.87 26.4682L17.865 35.0591H12.09H12.0975ZM5.21246 22.2955H8.8125C10.6725 22.2955 11.415 20.9373 11.415 19.6773C11.415 18.4173 10.665 17.0591 8.8125 17.0591H5.21246V22.2955Z" fill="#313131"/>
<path d="M40.4333 11.8555V24.7827C40.4333 31.7537 36.4583 35.5746 30.7958 35.5746C25.1033 35.5746 21.1582 31.7536 21.1582 24.7746V11.8636H26.2958V24.9873C26.2958 28.3091 27.9833 30.3709 30.7958 30.3709C33.6158 30.3709 35.2958 28.3091 35.2958 24.9873V11.8555H40.4333Z" fill="#313131"/>
<path d="M65.5873 0C62.8945 0.00751154 60.2296 0.593546 57.7444 1.72464C55.2593 2.85574 53.0026 4.50975 51.1035 6.59223C49.2043 8.67471 47.6997 11.1449 46.6756 13.8617C45.6515 16.5785 45.128 19.4888 45.1349 22.4264C45.127 25.3646 45.6497 28.2758 46.6734 30.9935C47.6971 33.7113 49.2015 36.1824 51.1008 38.2658C53.0001 40.3491 55.257 42.0039 57.7427 43.1355C60.2283 44.2671 62.8939 44.8534 65.5873 44.8609C68.2807 44.8534 70.9463 44.2671 73.432 43.1355C75.9176 42.0039 78.1746 40.3491 80.0738 38.2658C81.9731 36.1824 83.4776 33.7113 84.5012 30.9935C85.5249 28.2758 86.0477 25.3646 86.0398 22.4264C86.0467 19.4888 85.5231 16.5785 84.499 13.8617C83.4749 11.1449 81.9704 8.67471 80.0712 6.59223C78.172 4.50975 75.9154 2.85574 73.4302 1.72464C70.9451 0.593546 68.28 0.00751154 65.5873 0ZM72.2623 31.2955H69.4273L64.5748 19.2273H60.3073V31.2955H56.9023V19.2273H52.6498V15.7418H66.9973L70.6498 25.2491L70.8523 25.9364L71.0548 25.2491L74.6998 15.7418H78.5248L72.2623 31.2955Z" fill="#313131"/>
</g>
<defs>
<clipPath id="clip0">
<rect width="86.25" height="45" fill="white"/>
</clipPath>
</defs>
</svg>
