<svg width="183" height="80" viewBox="0 0 183 80" fill="none" xmlns="http://www.w3.org/2000/svg">
<path d="M57.3897 55.1216V55.6543H58.6604L55.0952 62.5439L51.2476 55.6543H52.3771V55.1216H48V55.6543H48.4589C48.4589 55.6543 48.9178 55.6543 49.3061 55.9029C49.6944 56.116 49.8356 56.5066 49.8356 56.5066L53.9656 63.8578C53.9656 63.8578 54.1068 63.9999 54.4598 63.9999C54.8128 63.9999 54.9893 63.8578 54.9893 63.8578L58.7663 56.4001C58.7663 56.4001 58.9075 56.116 59.1546 55.8674C59.437 55.6188 59.8959 55.6188 59.8959 55.6188H60.4254V55.1216H57.3897Z" fill="#313131"/>
<path d="M83.2643 61.5495V62.0822C83.229 62.8635 82.5936 63.4672 81.817 63.4672H77.6164V55.6543H79.2049V55.1216H78.393H75.1101H74.4395V55.6543H75.3572C75.7455 55.6898 76.0279 56.0094 76.0279 56.4001V62.7214C76.0279 63.1476 75.7102 63.4672 75.2866 63.4672H74.4395V63.9999H75.1101H83.2643H83.6526V61.5495H83.2643Z" fill="#313131"/>
<path d="M94.3481 55.1216H84.9938H84.6055V57.572H84.9938V57.0748C84.9938 56.2935 85.6291 55.6543 86.4057 55.6543H88.9473V62.7214C88.9473 63.1121 88.6296 63.4672 88.206 63.4672H87.9942H87.3588V63.9999H87.9942H91.2771H92.0183V63.4672H91.2771H91.2418C90.8535 63.4672 90.5005 63.1121 90.5005 62.7214V55.6543H92.9008C93.6774 55.6898 94.2775 56.2935 94.3128 57.0393V57.572H94.7011V55.1216H94.3481Z" fill="#313131"/>
<path d="M71.9686 63.4673C71.9686 63.4673 71.5097 63.4673 71.1214 63.2187C70.7331 63.0056 70.5566 62.615 70.5566 62.615L66.4619 55.2282C66.4619 55.2282 66.3207 55.0862 65.9677 55.0862C65.6147 55.0862 65.4382 55.2282 65.4382 55.2282L61.6612 62.686C61.6612 62.686 61.52 62.9701 61.2729 63.2187C60.9905 63.4673 60.5316 63.4673 60.5316 63.4673H59.9668V64H63.0378V63.4673H61.7671L65.3323 56.5777L68.0857 61.5496H63.7791V61.9402H68.2975L69.1447 63.4673H68.0151V64H72.4275V63.4673H71.9686Z" fill="#313131"/>
<path d="M133.672 63.4673C133.672 63.4673 133.213 63.4673 132.824 63.2187C132.436 63.0056 132.26 62.615 132.26 62.615L128.165 55.2282C128.165 55.2282 128.024 55.0862 127.671 55.0862C127.318 55.0862 127.141 55.2282 127.141 55.2282L123.364 62.686C123.364 62.686 123.223 62.9701 122.976 63.2187C122.693 63.4673 122.235 63.4673 122.235 63.4673H121.705V64H124.776V63.4673H123.47L127.035 56.5777L129.789 61.5496H125.482V61.9402H130L130.848 63.4673H129.718V64H134.13V63.4673H133.672Z" fill="#313131"/>
<path d="M105.75 61.5495V62.0822C105.715 62.7924 105.185 63.3607 104.479 63.4672H100.279V59.7383H102.997V60.8392H103.385V59.7383V59.2056V58.2112H102.997V59.2056H100.279V55.6543H101.444H101.832H103.844C104.62 55.6543 105.221 56.2935 105.256 57.0393V57.572H105.644V55.1216H105.256H101.408H100.985H97.7018H97.0664V55.6543H97.9489C98.3372 55.6898 98.6549 56.0094 98.6549 56.4001V62.7214C98.6549 63.1476 98.3372 63.4672 97.9136 63.4672H97.0664V63.9999H97.7371H101.408H105.715H106.103V61.5495H105.75Z" fill="#313131"/>
<path d="M120.188 63.5027C118.706 63.5027 117.576 60.6616 115.705 59.5963C116.976 59.4897 118.388 58.815 118.388 57.3589C118.388 55.7608 116.694 55.1216 115.317 55.1216H112.846H109.563H108.928V55.6543H109.81C110.199 55.6898 110.516 56.0094 110.516 56.4001V62.6149C110.516 63.041 110.199 63.3607 109.775 63.3607H109.598H108.928V63.8934H109.598H112.211H113.728V63.3607H112.881C112.458 63.3607 112.14 63.041 112.14 62.6149V59.6318H113.234C115.176 59.6318 116.835 63.9999 119.518 63.9999C120.365 63.9999 120.682 63.8578 120.682 63.8578V63.4672C120.612 63.4317 120.4 63.5027 120.188 63.5027ZM112.069 55.6543H114.47H114.611C115.529 55.6898 116.8 56.0804 116.8 57.3944C116.8 58.8505 115.458 59.2411 114.505 59.2411H114.364C114.329 59.2411 114.329 59.2411 114.293 59.2411C114.152 59.2411 114.011 59.2411 113.87 59.2411H112.069V55.6543Z" fill="#313131"/>
<path d="M91.8537 16C83.5936 16 76.8867 22.7475 76.8867 31.0576C76.8867 39.3677 83.5936 46.1152 91.8537 46.1152C100.114 46.1152 106.856 39.3677 106.856 31.0576C106.856 22.7475 100.114 16 91.8537 16ZM105.02 31.0576C105.02 38.3378 99.1254 44.2685 91.889 44.2685C84.6173 44.304 78.7223 38.3733 78.7223 31.0576C78.7223 28.9623 79.2165 27.0091 80.0637 25.2334H80.9109C80.9109 25.2334 81.7933 25.2334 82.5346 25.6951C83.2759 26.1213 83.5583 26.796 83.5583 26.796L91.3595 40.8238C91.3595 40.8238 91.6419 41.1079 92.3479 41.1079C93.0539 41.1079 93.3716 40.8238 93.3716 40.8238L100.573 26.6895C100.573 26.6895 100.82 26.1568 101.314 25.6951C101.879 25.1979 102.691 25.2334 102.691 25.2334H103.679C104.526 27.0091 105.02 28.9623 105.02 31.0576ZM100.82 24.2746C100.643 24.6297 100.431 25.0559 100.255 25.34L93.5481 38.3733L86.2411 25.269H97.6075L94.5011 31.1286L93.2657 28.7137C92.948 28.0745 93.4422 27.4708 94.2541 27.4708H95.3483L95.9131 26.3699H89.2415L93.6187 34.5734L98.5959 25.1979L99.1254 24.2746H80.5932C82.9229 20.4036 87.0883 17.8467 91.8537 17.8467C96.6191 17.8467 100.82 20.4392 103.114 24.2746H100.82Z" fill="#313131"/>
</svg>
