<svg width="16" height="17" viewBox="0 0 16 17" fill="none" xmlns="http://www.w3.org/2000/svg">
<path d="M6.05 8.50001L6.8002 7.7498C6.94204 7.60796 7.01045 7.40859 6.98557 7.20956L6.83892 6.03642C6.77702 5.54119 6.20321 5.2976 5.80394 5.59705L5.4 5.90001V6.55001C5.4 9.0629 7.4371 11.1 9.95 11.1H10.6L10.8881 10.7578C11.2162 10.3682 10.9891 9.76975 10.4851 9.69599L9.29794 9.52227C9.09474 9.49253 8.88943 9.56058 8.7442 9.7058L8 10.45M1.50001 8.5C1.50001 9.96345 1.98365 11.3139 2.79981 12.4004L1.5 15L4.09962 13.7002C5.18605 14.5164 6.53655 15 8 15C11.5899 15 14.5 12.0898 14.5 8.5C14.5 4.91015 11.5899 2 8 2C4.41016 2 1.50001 4.91015 1.50001 8.5Z" stroke="#1B1B1B" stroke-linecap="round" stroke-linejoin="round"/>
</svg>
