<svg width="24" height="24" viewBox="0 0 24 24" fill="none" xmlns="http://www.w3.org/2000/svg">
<path fill-rule="evenodd" clip-rule="evenodd" d="M7.78553 11.6493C7.77295 11.9584 7.76128 12.2452 7.74709 12.5026L6.80362 12.4498C6.81661 12.2141 6.82743 11.9441 6.83931 11.6475C6.86297 11.0569 6.89087 10.3606 6.94861 9.61905C5.73925 9.61905 4.7111 10.5022 4.52862 11.6977L3.10142 21.0476H20.8986L19.4714 11.6977C19.2889 10.5022 18.2608 9.61905 17.0514 9.61905C17.1091 10.3606 17.137 11.0569 17.1607 11.6475C17.1726 11.9441 17.1834 12.2141 17.1964 12.4498L16.2529 12.5026C16.2387 12.2452 16.227 11.9584 16.2145 11.6493C16.1897 11.0413 16.1615 10.3468 16.1036 9.61905H7.89643C7.83855 10.3468 7.81028 11.0413 7.78553 11.6493ZM7.98954 8.66667H16.0105C15.9255 7.94764 15.8027 7.21899 15.6187 6.52825C15.343 5.49331 14.9411 4.59407 14.3616 3.95934C13.7966 3.34048 13.0456 2.95238 12 2.95238C10.9544 2.95238 10.2034 3.34048 9.63839 3.95934C9.05892 4.59407 8.65702 5.49331 8.38129 6.52825C8.19727 7.21899 8.07446 7.94764 7.98954 8.66667ZM16.9611 8.66667C18.6887 8.66667 20.1573 9.92816 20.418 11.6359L22 22H2L3.582 11.6359C3.84267 9.92816 5.31134 8.66667 7.03888 8.66667C7.1292 7.87072 7.26301 7.0533 7.46869 6.28127C7.76386 5.17336 8.2183 4.10831 8.94303 3.31447C9.68226 2.50475 10.6833 2 12 2C13.3167 2 14.3177 2.50475 15.057 3.31447C15.7817 4.10831 16.2361 5.17336 16.5313 6.28127C16.737 7.0533 16.8708 7.87072 16.9611 8.66667Z" fill="#1B1B1B"/>
</svg>
