<svg width="22" height="19" viewBox="0 0 22 19" fill="none" xmlns="http://www.w3.org/2000/svg">
<path d="M4.4179 13.1106L4.41789 13.1106C1.76214 10.3725 0.5 7.86681 0.5 5.6567C0.5 2.82271 2.85371 0.5 5.76602 0.5C7.44277 0.5 8.97674 1.25393 9.9822 2.56703L10.3529 2.28315L9.9822 2.56703L10.603 3.37779L11 3.89623L11.397 3.37779L12.0178 2.56704L11.6282 2.26874L12.0178 2.56703C13.0233 1.25393 14.5572 0.5 16.234 0.5C19.1463 0.5 21.5 2.82271 21.5 5.6567C21.5 7.86681 20.2378 10.3725 17.5822 13.1106C15.4956 15.262 12.9648 17.1138 11 18.4032C9.03517 17.1137 6.50438 15.262 4.4179 13.1106Z" stroke="#1B1B1B"/>
</svg>
