<svg width="18" height="16" viewBox="0 0 18 16" fill="none" xmlns="http://www.w3.org/2000/svg">
<path d="M3.68217 10.9358L3.68216 10.9358C1.51636 8.67345 0.5 6.61609 0.5 4.8141C0.5 2.50753 2.38961 0.625 4.71765 0.625C6.05897 0.625 7.2869 1.23561 8.09317 2.30243L8.49206 2.00095L8.09317 2.30243L8.60111 2.9745L9 3.50229L9.39889 2.9745L9.90683 2.30243C10.7131 1.23561 11.941 0.625 13.2823 0.625C15.6104 0.625 17.5 2.50753 17.5 4.8141C17.5 6.61609 16.4836 8.67344 14.3179 10.9358C12.6354 12.6933 10.5971 14.2102 9 15.2755C7.4029 14.2102 5.36456 12.6933 3.68217 10.9358Z" fill="#313131" stroke="#313131"/>
</svg>
