<svg width="120" height="45" viewBox="0 0 120 45" fill="none" xmlns="http://www.w3.org/2000/svg">
<path fill-rule="evenodd" clip-rule="evenodd" d="M6.54246 0.753996L2.25822 0.746283C2.67863 1.14578 3.0014 1.76247 3.0014 2.63899V8.9851H4.5178C4.5494 8.9851 5.71834 8.9851 6.95047 9.58201C8.1826 10.1789 9.41473 11.467 9.41473 13.8547V14.2317H9.03561C9.00402 14.2317 8.40375 14.2317 7.74029 13.9175C7.07684 13.6033 6.41339 12.8493 6.41339 11.5927C6.41339 10.7444 6.06586 10.336 5.65515 10.0847C5.27604 9.80193 4.77055 9.73909 4.61258 9.73909H4.5494H4.5178H3.0014V27.3324V27.678H6.35012e-05V27.3324V9.73909H0L6.6284e-08 8.9851H6.35012e-05V0.742217V0.376997V0H0.37918H6.54246C6.54865 0.00616361 6.59863 0.011118 6.68427 0.0196081C7.03516 0.0543922 7.98473 0.148526 8.97512 0.62833C10.1757 1.22524 11.4394 2.51332 11.4394 4.86956V5.24656H11.0603C11.0287 5.24656 10.3968 5.24656 9.76495 4.93239C9.10149 4.61823 8.40644 3.89565 8.40644 2.63899C8.40644 1.75932 8.05892 1.35091 7.6798 1.09958C7.29663 0.865092 6.85845 0.794683 6.64749 0.760785L6.60564 0.753996H6.54246ZM16.4359 9.04796H16.3727C16.0883 9.04796 14.951 9.11079 13.782 9.77054C13.4029 9.36212 12.7711 9.04796 11.918 9.04796H11.5389V9.42496V13.8861V14.2631V27.7408H14.5403V11.6555C14.5403 10.6816 14.9826 10.2732 15.4565 10.0219C15.7092 9.8962 15.962 9.83337 16.1515 9.83337C16.2147 9.80195 16.3095 9.80195 16.3727 9.80195H16.4359H16.499C16.6886 9.80195 17.1625 9.86479 17.5732 10.1161C17.9523 10.3989 18.2998 10.7759 18.2998 11.6555C18.2998 12.9122 18.9949 13.6348 19.6583 13.9489C20.2902 14.2631 20.9221 14.2631 20.9537 14.2631H21.3328V13.9175C21.3328 11.5299 20.069 10.2418 18.8685 9.64487C17.6364 9.04796 16.4674 9.04796 16.4359 9.04796ZM27.0785 9.04796C27.1101 9.04796 28.279 9.04796 29.5112 9.64487C30.7117 10.2418 31.9754 11.5299 31.9754 13.9175C31.9754 16.2738 30.7117 17.5618 29.5112 18.1587C28.279 18.7557 27.1101 18.7557 27.0785 18.7557V18.0017H27.1417H27.3628C27.5524 17.9702 27.8051 17.9074 28.0263 17.7817C28.5002 17.5304 28.9741 17.122 28.9741 16.1481V11.6555C28.9741 10.7759 28.6266 10.3989 28.2159 10.1161C27.8051 9.86479 27.3313 9.80195 27.1417 9.80195H27.0785H27.0153C26.9521 9.80195 26.889 9.80195 26.7942 9.83337L26.7398 9.84219C26.558 9.87143 26.3313 9.90786 26.1307 10.0219C25.6568 10.2732 25.1829 10.6816 25.1829 11.6555V25.1332C25.1829 25.9815 25.5305 26.3899 25.9412 26.6412C26.3519 26.924 26.8258 26.9868 27.0153 26.9868H27.0785H27.1417C27.2049 26.9868 27.2681 26.9868 27.3628 26.9554C27.5524 26.924 27.8051 26.8611 28.0263 26.7669C28.5002 26.5155 28.9741 26.1071 28.9741 25.1332C28.9741 23.8766 29.6375 23.154 30.301 22.8398C30.9645 22.4942 31.5647 22.4942 31.5963 22.4942H31.9754V22.8712C31.9754 25.2589 30.7117 26.547 29.5112 27.1439C28.279 27.7408 27.1101 27.7408 27.0785 27.7408C27.0469 27.7408 25.878 27.7408 24.6458 27.1439C23.4453 26.547 22.2132 25.2589 22.2132 22.8712V13.9175C22.2132 11.5299 23.4453 10.2418 24.6458 9.64487C25.878 9.04796 27.0469 9.04796 27.0785 9.04796ZM37.5484 10.0219C37.749 9.90786 37.9757 9.87143 38.1575 9.84219L38.2118 9.83337C38.3066 9.80195 38.3698 9.80195 38.433 9.80195H38.4962H38.5594C38.7489 9.80195 39.2228 9.86479 39.6335 10.1161C40.0442 10.3989 40.3918 10.7759 40.3918 11.6555C40.3602 12.9122 41.0552 13.6348 41.7187 13.9489C42.3821 14.2631 42.9824 14.2631 43.014 14.2631H43.3931V13.9175C43.3931 11.5299 42.1294 10.2418 40.9289 9.64487C39.6967 9.04796 38.5278 9.04796 38.4962 9.04796C38.4646 9.04796 37.2957 9.04796 36.0635 9.64487C34.863 10.2418 33.5993 11.5299 33.5993 13.9175C33.5993 16.2738 34.863 17.5618 36.0635 18.1587C37.2957 18.7557 38.4646 18.7557 38.4962 18.7557H38.5594L38.6012 18.7624C38.8122 18.7963 39.2504 18.8668 39.6335 19.1012C40.0442 19.3526 40.3918 19.761 40.3918 20.6407V25.1332C40.3918 26.1071 39.9179 26.5155 39.444 26.7669C39.2228 26.8611 38.9701 26.924 38.7805 26.9554C38.6857 26.9868 38.6226 26.9868 38.5594 26.9868H38.4962H38.433C38.2434 26.9868 37.7696 26.924 37.3588 26.6412C36.9481 26.3899 36.6006 25.9815 36.6006 25.1332C36.6322 23.8766 35.9372 23.154 35.2737 22.8398C34.6102 22.4942 34.01 22.4942 33.9784 22.4942H33.5993V22.8712C33.5993 25.2589 34.863 26.547 36.0635 27.1439C37.2957 27.7408 38.4646 27.7408 38.4962 27.7408C38.5278 27.7408 39.6967 27.7408 40.9289 27.1439C42.1294 26.547 43.3931 25.2589 43.3931 22.8712C43.3931 20.515 42.1294 19.2269 40.9289 18.63C39.9385 18.1502 38.9889 18.0561 38.638 18.0213C38.5524 18.0128 38.5024 18.0078 38.4962 18.0017H38.433C38.2434 18.0017 37.7696 17.9388 37.3588 17.6875C36.9481 17.4047 36.6006 17.0278 36.6006 16.1481V11.6555C36.6006 10.6816 37.0745 10.2732 37.5484 10.0219ZM45.1065 0.0628322H45.4857C46.7494 0.0628322 47.476 0.753996 47.792 1.38233C48.1079 2.04207 48.1079 2.63899 48.1079 2.6704V27.7408H45.1065V0.439831V0.0628322ZM50.0035 9.04796C50.0351 9.04796 51.204 9.04796 52.4045 9.64487C53.6367 10.2418 54.9004 11.5299 54.9004 13.9175V27.7408H51.8675V11.6555C51.8675 10.7759 51.5199 10.3989 51.1408 10.1161C50.7301 9.86479 50.2562 9.80195 50.0667 9.80195H50.0035V9.42496V9.04796ZM72.1201 0.659746C70.8879 0.0628322 69.719 0.0628322 69.6874 0.0628322V0.439831V0.816828H69.7506C69.9401 0.816828 70.414 0.879662 70.8248 1.16241C71.2039 1.41374 71.5514 1.82216 71.5514 2.6704V25.1332C71.5514 26.1071 71.1091 26.5155 70.6352 26.7669C70.414 26.8611 70.1613 26.924 69.9717 26.9554C69.877 26.9868 69.8138 26.9868 69.7506 26.9868H69.6874V27.7408C69.719 27.7408 70.8879 27.7408 72.1201 27.1439C73.3206 26.547 74.5843 25.2589 74.5843 22.8712V4.93239C74.5843 2.54474 73.3206 1.25666 72.1201 0.659746ZM65.1696 0.0628322H64.7905V0.439831V27.7408H67.7918V2.6704C67.7918 2.63899 67.7918 2.04207 67.4759 1.38233C67.16 0.753996 66.4333 0.0628322 65.1696 0.0628322ZM81.4408 9.04796H81.5039C81.5355 9.04796 82.7045 9.04796 83.9366 9.64487C85.1371 10.2418 86.4009 11.5299 86.4009 13.9175V14.2631H86.0218C85.9902 14.2631 85.3583 14.2631 84.7264 13.9489C84.063 13.6348 83.3679 12.9122 83.3679 11.6555C83.3679 10.7759 83.0204 10.3989 82.6413 10.1161C82.2306 9.86479 81.7567 9.80195 81.5671 9.80195H81.5039H81.4408C81.3776 9.80195 81.2828 9.80195 81.2196 9.83337C81.0301 9.83337 80.7773 9.8962 80.5246 10.0219C80.0507 10.2732 79.6084 10.6816 79.6084 11.6555V27.7408H76.607V14.2631V13.8861V9.42496V9.04796H76.9861C77.8391 9.04796 78.471 9.36212 78.8501 9.77054C80.0191 9.11079 81.1564 9.04796 81.4408 9.04796ZM94.5793 9.64487C93.3471 9.04796 92.1782 9.04796 92.1466 9.04796C92.115 9.04796 90.9461 9.04796 89.7139 9.64487C88.5134 10.2418 87.2813 11.5299 87.2813 13.9175V22.8712C87.2813 25.2589 88.5134 26.547 89.7139 27.1439C90.9461 27.7408 92.115 27.7408 92.1466 27.7408C92.1782 27.7408 93.3471 27.7408 94.5793 27.1439C95.7798 26.547 97.0435 25.2589 97.0435 22.8712V22.4942H96.6644C96.6328 22.4942 96.0325 22.4942 95.3691 22.8398C94.7056 23.154 94.0422 23.8766 94.0422 25.1332C94.0422 26.1071 93.5683 26.5155 93.0944 26.7669C92.8732 26.8611 92.6205 26.924 92.4309 26.9554C92.3362 26.9868 92.273 26.9868 92.2098 26.9868H92.1466H92.0834C91.8939 26.9868 91.42 26.924 91.0092 26.6412C90.5985 26.3899 90.251 25.9815 90.251 25.1332V11.6555C90.251 10.6816 90.7249 10.2732 91.1988 10.0219C91.3994 9.90786 91.6261 9.87143 91.8079 9.84219L91.8623 9.83337C91.957 9.80195 92.0202 9.80195 92.0834 9.80195H92.1466H92.2098C92.3993 9.80195 92.8732 9.86479 93.284 10.1161C93.6947 10.3989 94.0422 10.7759 94.0422 11.6555V16.1481C94.0422 17.122 93.5683 17.5304 93.0944 17.7817C92.8732 17.9074 92.6205 17.9702 92.4309 18.0017H92.2098H92.1466V18.7557C92.1782 18.7557 93.3471 18.7557 94.5793 18.1587C95.7798 17.5618 97.0435 16.2738 97.0435 13.9175C97.0435 11.5299 95.7798 10.2418 94.5793 9.64487ZM103.226 9.84219C103.044 9.87143 102.817 9.90786 102.616 10.0219C102.143 10.2732 101.669 10.6816 101.669 11.6555V16.1481C101.669 17.0278 102.016 17.4047 102.427 17.6875C102.838 17.9388 103.312 18.0017 103.501 18.0017H103.564C103.57 18.0078 103.62 18.0128 103.706 18.0213C104.057 18.0561 105.007 18.1502 105.997 18.63C107.197 19.2269 108.461 20.515 108.461 22.8712C108.461 25.2589 107.197 26.547 105.997 27.1439C104.765 27.7408 103.596 27.7408 103.564 27.7408C103.533 27.7408 102.364 27.7408 101.132 27.1439C99.9311 26.547 98.6674 25.2589 98.6674 22.8712V22.4942H99.0465C99.0781 22.4942 99.6783 22.4942 100.342 22.8398C101.005 23.154 101.7 23.8766 101.669 25.1332C101.669 25.9815 102.016 26.3899 102.427 26.6412C102.838 26.924 103.312 26.9868 103.501 26.9868H103.564H103.627C103.691 26.9868 103.754 26.9868 103.849 26.9554C104.038 26.924 104.291 26.8611 104.512 26.7669C104.986 26.5155 105.46 26.1071 105.46 25.1332V20.6407C105.46 19.761 105.112 19.3526 104.702 19.1012C104.318 18.8668 103.88 18.7963 103.669 18.7624L103.627 18.7557H103.564C103.533 18.7557 102.364 18.7557 101.132 18.1587C99.9311 17.5618 98.6674 16.2738 98.6674 13.9175C98.6674 11.5299 99.9311 10.2418 101.132 9.64487C102.364 9.04796 103.533 9.04796 103.564 9.04796C103.596 9.04796 104.765 9.04796 105.997 9.64487C107.197 10.2418 108.461 11.5299 108.461 13.9175V14.2631H108.082C108.05 14.2631 107.45 14.2631 106.787 13.9489C106.123 13.6348 105.428 12.9122 105.46 11.6555C105.46 10.7759 105.112 10.3989 104.702 10.1161C104.291 9.86479 103.817 9.80195 103.627 9.80195H103.564H103.501C103.438 9.80195 103.375 9.80195 103.28 9.83337L103.226 9.84219ZM114.155 10.0219C114.356 9.90786 114.583 9.87143 114.764 9.84219L114.819 9.83337C114.914 9.80195 114.977 9.80195 115.04 9.80195H115.103H115.166C115.356 9.80195 115.83 9.86479 116.24 10.1161C116.651 10.3989 116.999 10.7759 116.999 11.6555C116.967 12.9122 117.662 13.6348 118.326 13.9489C118.989 14.2631 119.589 14.2631 119.621 14.2631H120V13.9175C120 11.5299 118.736 10.2418 117.536 9.64487C116.304 9.04796 115.135 9.04796 115.103 9.04796C115.072 9.04796 113.903 9.04796 112.67 9.64487C111.47 10.2418 110.206 11.5299 110.206 13.9175C110.206 16.2738 111.47 17.5618 112.67 18.1587C113.903 18.7557 115.072 18.7557 115.103 18.7557H115.166L115.208 18.7624C115.419 18.7963 115.857 18.8668 116.24 19.1012C116.651 19.3526 116.999 19.761 116.999 20.6407V25.1332C116.999 26.1071 116.525 26.5155 116.051 26.7669C115.83 26.8611 115.577 26.924 115.387 26.9554C115.293 26.9868 115.23 26.9868 115.166 26.9868H115.103H115.04C114.85 26.9868 114.377 26.924 113.966 26.6412C113.555 26.3899 113.208 25.9815 113.208 25.1332C113.239 23.8766 112.544 23.154 111.881 22.8398C111.217 22.4942 110.617 22.4942 110.585 22.4942H110.206V22.8712C110.206 25.2589 111.47 26.547 112.67 27.1439C113.903 27.7408 115.072 27.7408 115.103 27.7408C115.135 27.7408 116.304 27.7408 117.536 27.1439C118.736 26.547 120 25.2589 120 22.8712C120 20.515 118.736 19.2269 117.536 18.63C116.545 18.1502 115.596 18.0561 115.245 18.0213C115.159 18.0128 115.109 18.0078 115.103 18.0017H115.04C114.85 18.0017 114.377 17.9388 113.966 17.6875C113.555 17.4047 113.208 17.0278 113.208 16.1481V11.6555C113.208 10.6816 113.681 10.2732 114.155 10.0219Z" fill="black"/>
<path d="M91.733 44.2814C91.2175 44.2814 90.6668 44.1655 90.2685 43.9917C90.245 43.9801 90.1864 44.0033 90.1747 44.0612L90.0224 44.5596C89.999 44.6291 90.0224 44.6871 90.0693 44.7103C90.5731 44.8957 91.1589 45 91.733 45C93.3263 45 94.1347 44.351 94.1347 42.6357C94.1347 41.1406 93.6661 40.5263 92.061 40.3293C90.7722 40.167 90.7137 40.0627 90.7137 38.9037C90.7137 37.652 90.7137 37.2811 92.1547 37.2811C92.6702 37.2811 93.2209 37.397 93.6192 37.5709C93.6426 37.5825 93.7012 37.5593 93.7129 37.5013L93.8653 37.003C93.8887 36.9334 93.8653 36.8755 93.8184 36.8523C93.3146 36.6669 92.7288 36.5626 92.1547 36.5626C90.5614 36.5626 89.8701 37.2 89.8701 38.9269C89.8701 40.4104 90.3739 40.8624 91.9673 41.0478C93.256 41.1985 93.3029 41.4999 93.3029 42.6473C93.3029 43.899 93.1623 44.2814 91.733 44.2814Z" fill="black"/>
<path d="M102.587 36.8639C102.587 36.8059 102.552 36.7596 102.505 36.7596H101.884C101.837 36.7596 101.802 36.8059 101.802 36.8639V40.1902H98.9666V36.8639C98.9666 36.8059 98.9315 36.7596 98.8846 36.7596H98.2637C98.2168 36.7596 98.1816 36.8059 98.1816 36.8639V44.7334C98.1816 44.7913 98.2168 44.8377 98.2637 44.8377H98.8846C98.9315 44.8377 98.9666 44.7913 98.9666 44.7334V40.8856H101.802V44.7334C101.802 44.7913 101.837 44.8377 101.884 44.8377H102.505C102.552 44.8377 102.587 44.7913 102.587 44.7334V36.8639Z" fill="black"/>
<path d="M109.024 44.2351C107.665 44.2351 107.348 43.9106 107.348 40.7233C107.348 37.6404 107.665 37.3159 109.024 37.3159C110.383 37.3159 110.687 37.6404 110.687 40.7233C110.687 43.9106 110.383 44.2351 109.024 44.2351ZM109.024 45C110.664 45 111.543 44.2467 111.543 40.7233C111.543 37.3159 110.664 36.5626 109.024 36.5626C107.372 36.5626 106.493 37.3159 106.493 40.7233C106.493 44.2467 107.372 45 109.024 45Z" fill="black"/>
<path d="M116.283 37.4549H118.181C118.825 37.4549 118.978 37.7563 118.978 39.0544C118.978 40.4104 118.802 40.7001 118.181 40.7001H116.283V37.4549ZM116.283 41.3955H118.181C119.411 41.3955 119.821 40.4915 119.821 39.0544C119.821 37.5477 119.224 36.7596 118.181 36.7596H115.58C115.533 36.7596 115.498 36.8059 115.498 36.8639V44.7334C115.498 44.7913 115.533 44.8377 115.58 44.8377H116.201C116.248 44.8377 116.283 44.7913 116.283 44.7334V41.3955Z" fill="black"/>
<path fill-rule="evenodd" clip-rule="evenodd" d="M82.2515 41.0396H1.38574V40.523H82.2515V41.0396Z" fill="black"/>
</svg>
