<svg width="107" height="40" viewBox="0 0 107 40" fill="none" xmlns="http://www.w3.org/2000/svg">
<path fill-rule="evenodd" clip-rule="evenodd" d="M5.81551 0.670219L2.00729 0.663362C2.38099 1.01847 2.6679 1.56664 2.6679 2.34577V7.98676H4.01583C4.04391 7.98676 5.08297 7.98676 6.17819 8.51735C7.27342 9.04794 8.36865 10.1929 8.36865 12.3153V12.6504H8.03165C8.00357 12.6504 7.47 12.6504 6.88026 12.3711C6.29052 12.0918 5.70079 11.4216 5.70079 10.3046C5.70079 9.5506 5.39188 9.18757 5.0268 8.96416C4.68981 8.71283 4.24049 8.65698 4.10007 8.65698H4.04391H4.01583H2.6679V24.2954V24.6026H4.73326e-05V24.2954V8.65698H0L5.89207e-08 7.98676H4.73326e-05V0.659748V0.335108V0H0.33704H5.81551C5.82102 0.00547877 5.86544 0.00988264 5.94157 0.0174294C6.25346 0.0483487 7.09753 0.132023 7.97788 0.558515C9.04502 1.08911 10.1683 2.23406 10.1683 4.3285V4.66361H9.83133C9.80325 4.66361 9.2416 4.66361 8.67994 4.38435C8.09021 4.10509 7.47239 3.4628 7.47239 2.34577C7.47239 1.56384 7.16348 1.20081 6.82648 0.977402C6.48588 0.76897 6.09639 0.706385 5.90887 0.676253L5.87167 0.670219H5.81551ZM14.6096 8.04263H14.5535C14.3007 8.04263 13.2898 8.09848 12.2507 8.68492C11.9137 8.32189 11.352 8.04263 10.5938 8.04263H10.2568V8.37774V12.3432V12.6783V24.6585H12.9247V10.3605C12.9247 9.49477 13.3178 9.13173 13.7391 8.90833C13.9637 8.79662 14.1884 8.74077 14.3569 8.74077C14.4131 8.71285 14.4973 8.71285 14.5535 8.71285H14.6096H14.6658C14.8343 8.71285 15.2555 8.7687 15.6206 8.9921C15.9576 9.24344 16.2665 9.57855 16.2665 10.3605C16.2665 11.4775 16.8843 12.1198 17.4741 12.3991C18.0357 12.6783 18.5974 12.6783 18.6255 12.6783H18.9625V12.3711C18.9625 10.2488 17.8391 9.10381 16.772 8.57322C15.6768 8.04263 14.6377 8.04263 14.6096 8.04263ZM24.0698 8.04263C24.0979 8.04263 25.1369 8.04263 26.2321 8.57322C27.2993 9.10381 28.4226 10.2488 28.4226 12.3711C28.4226 14.4656 27.2993 15.6105 26.2321 16.1411C25.1369 16.6717 24.0979 16.6717 24.0698 16.6717V16.0015H24.1259H24.3225C24.491 15.9736 24.7157 15.9177 24.9123 15.806C25.3335 15.5826 25.7547 15.2196 25.7547 14.3539V10.3605C25.7547 9.57855 25.4458 9.24344 25.0808 8.9921C24.7157 8.7687 24.2944 8.71285 24.1259 8.71285H24.0698H24.0136C23.9574 8.71285 23.9013 8.71285 23.817 8.74077L23.7687 8.74861C23.6071 8.7746 23.4056 8.80699 23.2273 8.90833C22.8061 9.13173 22.3848 9.49477 22.3848 10.3605V22.3406C22.3848 23.0946 22.6937 23.4577 23.0588 23.6811C23.4239 23.9324 23.8451 23.9883 24.0136 23.9883H24.0698H24.1259C24.1821 23.9883 24.2383 23.9883 24.3225 23.9603C24.491 23.9324 24.7157 23.8766 24.9123 23.7928C25.3335 23.5694 25.7547 23.2063 25.7547 22.3406C25.7547 21.2236 26.3445 20.5813 26.9342 20.3021C27.524 19.9949 28.0575 19.9949 28.0856 19.9949H28.4226V20.33C28.4226 22.4523 27.2993 23.5973 26.2321 24.1279C25.1369 24.6585 24.0979 24.6585 24.0698 24.6585C24.0417 24.6585 23.0026 24.6585 21.9074 24.1279C20.8403 23.5973 19.745 22.4523 19.745 20.33V12.3711C19.745 10.2488 20.8403 9.10381 21.9074 8.57322C23.0026 8.04263 24.0417 8.04263 24.0698 8.04263ZM33.3763 8.90833C33.5547 8.80699 33.7561 8.7746 33.9178 8.74861L33.9661 8.74077C34.0503 8.71285 34.1065 8.71285 34.1627 8.71285H34.2188H34.275C34.4435 8.71285 34.8647 8.7687 35.2298 8.9921C35.5949 9.24344 35.9038 9.57855 35.9038 10.3605C35.8757 11.4775 36.4935 12.1198 37.0833 12.3991C37.673 12.6783 38.2066 12.6783 38.2347 12.6783H38.5716V12.3711C38.5716 10.2488 37.4483 9.10381 36.3812 8.57322C35.286 8.04263 34.2469 8.04263 34.2188 8.04263C34.1907 8.04263 33.1517 8.04263 32.0565 8.57322C30.9893 9.10381 29.866 10.2488 29.866 12.3711C29.866 14.4656 30.9893 15.6105 32.0565 16.1411C33.1517 16.6717 34.1907 16.6717 34.2188 16.6717H34.275L34.3122 16.6777C34.4997 16.7079 34.8892 16.7704 35.2298 16.9789C35.5949 17.2023 35.9038 17.5653 35.9038 18.3472V22.3406C35.9038 23.2063 35.4825 23.5694 35.0613 23.7928C34.8647 23.8766 34.6401 23.9324 34.4716 23.9603C34.3873 23.9883 34.3312 23.9883 34.275 23.9883H34.2188H34.1627C33.9942 23.9883 33.5729 23.9324 33.2078 23.6811C32.8428 23.4577 32.5339 23.0946 32.5339 22.3406C32.5619 21.2236 31.9441 20.5813 31.3544 20.3021C30.7647 19.9949 30.2311 19.9949 30.203 19.9949H29.866V20.33C29.866 22.4523 30.9893 23.5973 32.0565 24.1279C33.1517 24.6585 34.1907 24.6585 34.2188 24.6585C34.2469 24.6585 35.286 24.6585 36.3812 24.1279C37.4483 23.5973 38.5716 22.4523 38.5716 20.33C38.5716 18.2355 37.4483 17.0906 36.3812 16.56C35.5008 16.1335 34.6568 16.0498 34.3449 16.0189C34.2688 16.0114 34.2243 16.007 34.2188 16.0015H34.1627C33.9942 16.0015 33.5729 15.9456 33.2078 15.7222C32.8428 15.4709 32.5339 15.1358 32.5339 14.3539V10.3605C32.5339 9.49477 32.9551 9.13173 33.3763 8.90833ZM40.0947 0.0558509H40.4317C41.555 0.0558509 42.2009 0.670219 42.4817 1.22873C42.7625 1.81518 42.7625 2.34577 42.7625 2.37369V24.6585H40.0947V0.390961V0.0558509ZM44.4475 8.04263C44.4756 8.04263 45.5147 8.04263 46.5818 8.57322C47.677 9.10381 48.8003 10.2488 48.8003 12.3711V24.6585H46.1044V10.3605C46.1044 9.57855 45.7955 9.24344 45.4585 8.9921C45.0934 8.7687 44.6722 8.71285 44.5037 8.71285H44.4475V8.37774V8.04263ZM64.1067 0.586441C63.0115 0.0558509 61.9724 0.0558509 61.9444 0.0558509V0.390961V0.72607H62.0005C62.169 0.72607 62.5903 0.781922 62.9553 1.03325C63.2923 1.25666 63.6012 1.61969 63.6012 2.37369V22.3406C63.6012 23.2063 63.2081 23.5694 62.7868 23.7928C62.5903 23.8766 62.3656 23.9324 62.1971 23.9603C62.1129 23.9883 62.0567 23.9883 62.0005 23.9883H61.9444V24.6585C61.9724 24.6585 63.0115 24.6585 64.1067 24.1279C65.1739 23.5973 66.2972 22.4523 66.2972 20.33V4.38435C66.2972 2.26199 65.1739 1.11703 64.1067 0.586441ZM57.9285 0.0558509H57.5915V0.390961V24.6585H60.2594V2.37369C60.2594 2.34577 60.2594 1.81518 59.9786 1.22873C59.6977 0.670219 59.0518 0.0558509 57.9285 0.0558509ZM72.3918 8.04263H72.4479C72.476 8.04263 73.5151 8.04263 74.6103 8.57322C75.6775 9.10381 76.8008 10.2488 76.8008 12.3711V12.6783H76.4638C76.4357 12.6783 75.874 12.6783 75.3124 12.3991C74.7226 12.1198 74.1048 11.4775 74.1048 10.3605C74.1048 9.57855 73.7959 9.24344 73.4589 8.9921C73.0938 8.7687 72.6726 8.71285 72.5041 8.71285H72.4479H72.3918C72.3356 8.71285 72.2514 8.71285 72.1952 8.74077C72.0267 8.74077 71.802 8.79662 71.5774 8.90833C71.1561 9.13173 70.763 9.49477 70.763 10.3605V24.6585H68.0951V12.6783V12.3432V8.37774V8.04263H68.4321C69.1903 8.04263 69.752 8.32189 70.089 8.68492C71.1281 8.09848 72.139 8.04263 72.3918 8.04263ZM84.0704 8.57322C82.9752 8.04263 81.9362 8.04263 81.9081 8.04263C81.88 8.04263 80.8409 8.04263 79.7457 8.57322C78.6786 9.10381 77.5833 10.2488 77.5833 12.3711V20.33C77.5833 22.4523 78.6786 23.5973 79.7457 24.1279C80.8409 24.6585 81.88 24.6585 81.9081 24.6585C81.9362 24.6585 82.9752 24.6585 84.0704 24.1279C85.1376 23.5973 86.2609 22.4523 86.2609 20.33V19.9949H85.9239C85.8958 19.9949 85.3623 19.9949 84.7725 20.3021C84.1828 20.5813 83.593 21.2236 83.593 22.3406C83.593 23.2063 83.1718 23.5694 82.7506 23.7928C82.554 23.8766 82.3293 23.9324 82.1608 23.9603C82.0766 23.9883 82.0204 23.9883 81.9642 23.9883H81.9081H81.8519C81.6834 23.9883 81.2622 23.9324 80.8971 23.6811C80.532 23.4577 80.2231 23.0946 80.2231 22.3406V10.3605C80.2231 9.49477 80.6444 9.13173 81.0656 8.90833C81.2439 8.80699 81.4454 8.7746 81.607 8.74861L81.6553 8.74077C81.7396 8.71285 81.7958 8.71285 81.8519 8.71285H81.9081H81.9642C82.1327 8.71285 82.554 8.7687 82.9191 8.9921C83.2841 9.24344 83.593 9.57855 83.593 10.3605V14.3539C83.593 15.2196 83.1718 15.5826 82.7506 15.806C82.554 15.9177 82.3293 15.9736 82.1608 16.0015H81.9642H81.9081V16.6717C81.9362 16.6717 82.9752 16.6717 84.0704 16.1411C85.1376 15.6105 86.2609 14.4656 86.2609 12.3711C86.2609 10.2488 85.1376 9.10381 84.0704 8.57322ZM91.7561 8.74861C91.5944 8.7746 91.393 8.80699 91.2147 8.90833C90.7934 9.13173 90.3722 9.49477 90.3722 10.3605V14.3539C90.3722 15.1358 90.6811 15.4709 91.0462 15.7222C91.4112 15.9456 91.8325 16.0015 92.001 16.0015H92.0571C92.0626 16.007 92.1071 16.0114 92.1832 16.0189C92.4951 16.0498 93.3391 16.1335 94.2195 16.56C95.2866 17.0906 96.4099 18.2355 96.4099 20.33C96.4099 22.4523 95.2866 23.5973 94.2195 24.1279C93.1243 24.6585 92.0852 24.6585 92.0571 24.6585C92.0291 24.6585 90.99 24.6585 89.8948 24.1279C88.8276 23.5973 87.7043 22.4523 87.7043 20.33V19.9949H88.0413C88.0694 19.9949 88.603 19.9949 89.1927 20.3021C89.7824 20.5813 90.4003 21.2236 90.3722 22.3406C90.3722 23.0946 90.6811 23.4577 91.0462 23.6811C91.4112 23.9324 91.8325 23.9883 92.001 23.9883H92.0571H92.1133C92.1695 23.9883 92.2256 23.9883 92.3099 23.9603C92.4784 23.9324 92.703 23.8766 92.8996 23.7928C93.3208 23.5694 93.7421 23.2063 93.7421 22.3406V18.3472C93.7421 17.5653 93.4332 17.2023 93.0681 16.9789C92.7275 16.7704 92.338 16.7079 92.1505 16.6777L92.1133 16.6717H92.0571C92.0291 16.6717 90.99 16.6717 89.8948 16.1411C88.8276 15.6105 87.7043 14.4656 87.7043 12.3711C87.7043 10.2488 88.8276 9.10381 89.8948 8.57322C90.99 8.04263 92.0291 8.04263 92.0571 8.04263C92.0852 8.04263 93.1243 8.04263 94.2195 8.57322C95.2866 9.10381 96.4099 10.2488 96.4099 12.3711V12.6783H96.073C96.0449 12.6783 95.5113 12.6783 94.9216 12.3991C94.3318 12.1198 93.714 11.4775 93.7421 10.3605C93.7421 9.57855 93.4332 9.24344 93.0681 8.9921C92.703 8.7687 92.2818 8.71285 92.1133 8.71285H92.0571H92.001C91.9448 8.71285 91.8886 8.71285 91.8044 8.74077L91.7561 8.74861ZM101.471 8.90833C101.65 8.80699 101.851 8.7746 102.013 8.74861L102.061 8.74077C102.145 8.71285 102.202 8.71285 102.258 8.71285H102.314H102.37C102.539 8.71285 102.96 8.7687 103.325 8.9921C103.69 9.24344 103.999 9.57855 103.999 10.3605C103.971 11.4775 104.589 12.1198 105.178 12.3991C105.768 12.6783 106.302 12.6783 106.33 12.6783H106.667V12.3711C106.667 10.2488 105.543 9.10381 104.476 8.57322C103.381 8.04263 102.342 8.04263 102.314 8.04263C102.286 8.04263 101.247 8.04263 100.152 8.57322C99.0844 9.10381 97.9611 10.2488 97.9611 12.3711C97.9611 14.4656 99.0844 15.6105 100.152 16.1411C101.247 16.6717 102.286 16.6717 102.314 16.6717H102.37L102.407 16.6777C102.595 16.7079 102.984 16.7704 103.325 16.9789C103.69 17.2023 103.999 17.5653 103.999 18.3472V22.3406C103.999 23.2063 103.578 23.5694 103.156 23.7928C102.96 23.8766 102.735 23.9324 102.567 23.9603C102.482 23.9883 102.426 23.9883 102.37 23.9883H102.314H102.258C102.089 23.9883 101.668 23.9324 101.303 23.6811C100.938 23.4577 100.629 23.0946 100.629 22.3406C100.657 21.2236 100.039 20.5813 99.4495 20.3021C98.8597 19.9949 98.3261 19.9949 98.2981 19.9949H97.9611V20.33C97.9611 22.4523 99.0844 23.5973 100.152 24.1279C101.247 24.6585 102.286 24.6585 102.314 24.6585C102.342 24.6585 103.381 24.6585 104.476 24.1279C105.543 23.5973 106.667 22.4523 106.667 20.33C106.667 18.2355 105.543 17.0906 104.476 16.56C103.596 16.1335 102.752 16.0498 102.44 16.0189C102.364 16.0114 102.319 16.007 102.314 16.0015H102.258C102.089 16.0015 101.668 15.9456 101.303 15.7222C100.938 15.4709 100.629 15.1358 100.629 14.3539V10.3605C100.629 9.49477 101.05 9.13173 101.471 8.90833Z" fill="black"/>
<path d="M81.5404 39.3613C81.0822 39.3613 80.5927 39.2583 80.2386 39.1037C80.2178 39.0934 80.1657 39.114 80.1553 39.1655L80.0199 39.6085C79.9991 39.6703 80.0199 39.7218 80.0616 39.7425C80.5094 39.9073 81.0301 40 81.5404 40C82.9567 40 83.6753 39.4231 83.6753 37.8984C83.6753 36.5694 83.2587 36.0234 81.832 35.8483C80.6864 35.704 80.6344 35.6113 80.6344 34.5811C80.6344 33.4685 80.6344 33.1388 81.9153 33.1388C82.3735 33.1388 82.863 33.2418 83.2171 33.3963C83.2379 33.4066 83.29 33.386 83.3004 33.3345L83.4358 32.8915C83.4566 32.8297 83.4358 32.7782 83.3941 32.7576C82.9463 32.5928 82.4256 32.5001 81.9153 32.5001C80.499 32.5001 79.8846 33.0667 79.8846 34.6017C79.8846 35.9204 80.3324 36.3221 81.7487 36.487C82.8942 36.6209 82.9359 36.8888 82.9359 37.9087C82.9359 39.0213 82.8109 39.3613 81.5404 39.3613Z" fill="black"/>
<path d="M91.1885 32.7679C91.1885 32.7164 91.1572 32.6752 91.1156 32.6752H90.5636C90.522 32.6752 90.4907 32.7164 90.4907 32.7679V35.7246H87.9705V32.7679C87.9705 32.7164 87.9393 32.6752 87.8976 32.6752H87.3457C87.304 32.6752 87.2728 32.7164 87.2728 32.7679V39.763C87.2728 39.8145 87.304 39.8557 87.3457 39.8557H87.8976C87.9393 39.8557 87.9705 39.8145 87.9705 39.763V36.3427H90.4907V39.763C90.4907 39.8145 90.522 39.8557 90.5636 39.8557H91.1156C91.1572 39.8557 91.1885 39.8145 91.1885 39.763V32.7679Z" fill="black"/>
<path d="M96.9104 39.3201C95.7023 39.3201 95.4211 39.0316 95.4211 36.1985C95.4211 33.4582 95.7023 33.1697 96.9104 33.1697C98.1184 33.1697 98.3892 33.4582 98.3892 36.1985C98.3892 39.0316 98.1184 39.3201 96.9104 39.3201ZM96.9104 40C98.3683 40 99.1494 39.3304 99.1494 36.1985C99.1494 33.1697 98.3683 32.5001 96.9104 32.5001C95.442 32.5001 94.6609 33.1697 94.6609 36.1985C94.6609 39.3304 95.442 40 96.9104 40Z" fill="black"/>
<path d="M103.362 33.2933H105.05C105.622 33.2933 105.758 33.5611 105.758 34.715C105.758 35.9203 105.602 36.1779 105.05 36.1779H103.362V33.2933ZM103.362 36.796H105.05C106.143 36.796 106.508 35.9924 106.508 34.715C106.508 33.3757 105.976 32.6752 105.05 32.6752H102.738C102.696 32.6752 102.665 32.7164 102.665 32.7679V39.763C102.665 39.8145 102.696 39.8557 102.738 39.8557H103.29C103.331 39.8557 103.362 39.8145 103.362 39.763V36.796Z" fill="black"/>
<path fill-rule="evenodd" clip-rule="evenodd" d="M73.112 36.4796H1.23134V36.0204H73.112V36.4796Z" fill="black"/>
</svg>
