<svg width="51" height="14" viewBox="0 0 51 14" fill="none" xmlns="http://www.w3.org/2000/svg">
<g clip-path="url(#clip0)">
<path d="M24.1027 6.052C23.1127 5.87367 22.2931 5.72788 22.2931 5.09758C22.2931 4.55588 22.7688 4.19251 23.5771 4.19251C24.4751 4.19251 25.0064 4.5671 25.0177 5.31403H27.4654C27.4597 3.4265 25.9452 2.15918 23.6384 2.15918C21.3315 2.15918 19.7955 3.39286 19.7955 5.17945C19.7955 7.40232 21.7334 7.80382 23.2603 8.05504C24.2719 8.22327 25.0972 8.41842 25.0972 9.06442C25.0972 9.71042 24.458 10.0188 23.7405 10.0188C22.813 10.0188 22.1637 9.60051 22.1512 8.75712H19.6309C19.6479 10.7759 21.2475 12.1295 23.644 12.1295C26.0576 12.1295 27.6527 10.8734 27.6527 8.94666C27.6527 6.65538 25.6626 6.32565 24.1027 6.052Z" fill="#949494"/>
<path d="M34.3007 9.59261C33.3561 9.59261 32.8305 9.06773 32.8305 8.15705V4.47732H35.4212V2.4283H32.7873V-0.0390625H32.2946L28.5176 3.93002V4.47732H30.2477V8.49239C30.2477 10.5863 31.5363 11.8648 33.6388 11.8648H35.4768V9.59261H34.3007Z" fill="#949494"/>
<path d="M37.5957 2.42822V11.8659H40.1784V2.42822H37.5957Z" fill="#949494"/>
<path d="M47.7251 6.92352L50.9527 2.42844H47.9794L45.114 6.62183V-0.470703H44.6281L42.5312 1.75777V11.8661H45.114V7.35307L48.1724 11.8661H51.3035L47.7251 6.92352Z" fill="#949494"/>
<path d="M12.829 1.75655V4.19362L11.1079 5.17496C10.9845 5.24491 10.8448 5.28172 10.7026 5.28172C10.5604 5.28172 10.4206 5.24491 10.2973 5.17496L4.62094 1.94272C4.58653 1.923 4.55797 1.8947 4.53812 1.86065C4.51826 1.8266 4.50781 1.78799 4.50781 1.74869C4.50781 1.7094 4.51826 1.67079 4.53812 1.63674C4.55797 1.60269 4.58653 1.57439 4.62094 1.55467L6.13085 0.691095C6.21714 0.641877 6.31503 0.615967 6.41467 0.615967C6.51431 0.615967 6.6122 0.641877 6.69849 0.691095L10.2973 2.73676C10.4206 2.80671 10.5604 2.84352 10.7026 2.84352C10.8448 2.84352 10.9845 2.80671 11.1079 2.73676L12.829 1.75655Z" fill="#949494"/>
<path d="M12.8286 6.48267V8.91413C12.8298 8.95786 12.8201 9.00122 12.8003 9.04035C12.7805 9.07947 12.7512 9.11317 12.7151 9.13844L12.6901 9.15302L7.22942 12.2563C6.98255 12.3968 6.70263 12.4708 6.4177 12.4708C6.13277 12.4708 5.85285 12.3968 5.60598 12.2563L0 9.06218V6.62959L5.60598 9.81921C5.85264 9.95976 6.13238 10.0337 6.41713 10.0337C6.70188 10.0337 6.98162 9.95976 7.22828 9.81921L12.6889 6.71258L12.7139 6.698C12.749 6.67372 12.7777 6.64151 12.7977 6.60405C12.8176 6.5666 12.8282 6.52498 12.8286 6.48267V6.48267Z" fill="#949494"/>
<path d="M8.15267 6.8562L6.82326 7.61211C6.6999 7.6826 6.55991 7.71972 6.4174 7.71972C6.27489 7.71972 6.1349 7.6826 6.01154 7.61211L0.142179 4.27221L0.119474 4.25875C0.0833997 4.23341 0.0541803 4.1997 0.0343846 4.16059C0.014589 4.12148 0.00482333 4.07816 0.00594636 4.03444V1.59961C0.00565469 1.64379 0.0163766 1.68736 0.0371657 1.72648C0.0579548 1.7656 0.0881719 1.79906 0.12515 1.82391L8.15267 6.39301C8.19395 6.41638 8.22825 6.45011 8.25211 6.49077C8.27596 6.53144 8.28853 6.57761 8.28853 6.62461C8.28853 6.67161 8.27596 6.71778 8.25211 6.75845C8.22825 6.79911 8.19395 6.83284 8.15267 6.8562Z" fill="#949494"/>
</g>
<defs>
<clipPath id="clip0">
<rect width="51" height="14" fill="white"/>
</clipPath>
</defs>
</svg>
