<svg width="27" height="16" viewBox="0 0 27 16" fill="none" xmlns="http://www.w3.org/2000/svg">
<g clip-path="url(#clip0)">
<path d="M10.3213 1.69879H17.271V14.1863H10.3213V1.69879Z" fill="#FF5F00"/>
<path d="M10.7623 7.94261C10.7623 5.40543 11.9537 3.15497 13.7848 1.69879C12.4391 0.639799 10.7403 0 8.88705 0C4.4964 0 0.944336 3.55206 0.944336 7.94261C0.944336 12.3331 4.4964 15.8852 8.88695 15.8852C10.7402 15.8852 12.439 15.2454 13.7848 14.1863C11.9537 12.7523 10.7623 10.4798 10.7623 7.94261Z" fill="#EB001B"/>
<path d="M26.6471 7.94261C26.6471 12.3331 23.0951 15.8852 18.7045 15.8852C16.8513 15.8852 15.1525 15.2454 13.8066 14.1863C15.6599 12.7303 16.8293 10.4798 16.8293 7.94261C16.8293 5.40543 15.6378 3.15497 13.8066 1.69879C15.1524 0.639799 16.8513 0 18.7045 0C23.0951 0 26.6472 3.57417 26.6472 7.94261H26.6471Z" fill="#F79E1B"/>
</g>
<defs>
<clipPath id="clip0">
<rect width="26" height="16" fill="white" transform="translate(0.944336)"/>
</clipPath>
</defs>
</svg>
