<svg width="41" height="11" viewBox="0 0 41 11" fill="none" xmlns="http://www.w3.org/2000/svg">
<g clip-path="url(#clip0)">
<path d="M9.53728 1.44375L8.07858 6.49687H7.82902L6.37032 1.44375C6.12076 0.588671 5.33762 0 4.44261 0H0.944336V11H4.44691V4.49882H4.69649L6.70166 11H9.20596L11.2068 4.49882H11.4564V11H14.959V0H11.4607C10.57 0 9.78686 0.588671 9.53728 1.44375ZM28.9305 11H32.4546V7.74726H36.0004C37.8548 7.74726 39.4341 6.69882 40.045 5.225H28.9305V11ZM22.687 1.16016L20.2215 6.50118H19.9719V0H16.4693V11H19.4426C20.2258 11 20.9357 10.5445 21.2627 9.83985L23.7283 4.50312H23.9779V11H27.4805V0H24.5071C23.724 0 23.0141 0.455469 22.687 1.16016Z" fill="#006848"/>
<path d="M36.3493 0C37.3605 0 38.2771 0.386719 38.9698 1.02266C39.7444 1.72734 40.2306 2.74142 40.2306 3.87149C40.2306 4.10351 40.2048 4.33125 40.166 4.55469H33.66C31.4569 4.55469 29.5894 3.11094 28.9612 1.11719C28.9526 1.0957 28.9483 1.06992 28.9397 1.04414C28.9225 0.983983 28.9096 0.919531 28.8924 0.859375C28.8278 0.580077 28.7848 0.296483 28.7676 0H36.3493Z" fill="url(#paint0_linear)"/>
</g>
<defs>
<linearGradient id="paint0_linear" x1="40.2306" y1="14.2448" x2="28.8377" y2="14.2448" gradientUnits="userSpaceOnUse">
<stop stop-color="#1E5CD8"/>
<stop offset="1" stop-color="#02AFFF"/>
</linearGradient>
<clipPath id="clip0">
<rect width="39.2857" height="11" fill="white" transform="translate(0.944336)"/>
</clipPath>
</defs>
</svg>
