<svg width="14" height="14" viewBox="0 0 14 14" fill="none" xmlns="http://www.w3.org/2000/svg">
<path d="M10.3 3.6416H10.9M3.4 0.641602H10.6C11.9255 0.641602 13 1.71612 13 3.0416V10.2416C13 11.5671 11.9255 12.6416 10.6 12.6416H3.4C2.07452 12.6416 1 11.5671 1 10.2416V3.0416C1 1.71612 2.07452 0.641602 3.4 0.641602ZM7 9.0416C5.67452 9.0416 4.6 7.96709 4.6 6.6416C4.6 5.31612 5.67452 4.2416 7 4.2416C8.32548 4.2416 9.4 5.31612 9.4 6.6416C9.4 7.96709 8.32548 9.0416 7 9.0416Z" stroke="#3D3D3D"/>
</svg>
