<svg width="14" height="15" viewBox="0 0 14 15" fill="none" xmlns="http://www.w3.org/2000/svg">
<path d="M5.05 7.64161L5.8002 6.8914C5.94204 6.74957 6.01045 6.55019 5.98557 6.35116L5.83892 5.17803C5.77702 4.6828 5.20321 4.4392 4.80394 4.73865L4.4 5.04161V5.69161C4.4 8.2045 6.4371 10.2416 8.95 10.2416H9.59999L9.88814 9.89943C10.2162 9.50982 9.98906 8.91135 9.48507 8.83759L8.29794 8.66387C8.09474 8.63413 7.88943 8.70218 7.7442 8.8474L7 9.59161M0.500008 7.6416C0.500008 9.10506 0.983647 10.4556 1.79981 11.542L0.5 14.1416L3.09962 12.8418C4.18605 13.658 5.53655 14.1416 7 14.1416C10.5899 14.1416 13.5 11.2315 13.5 7.6416C13.5 4.05175 10.5899 1.1416 7 1.1416C3.41016 1.1416 0.500008 4.05175 0.500008 7.6416Z" stroke="#3D3D3D" stroke-linecap="round" stroke-linejoin="round"/>
</svg>
