<svg width="12" height="12" viewBox="0 0 12 12" fill="none" xmlns="http://www.w3.org/2000/svg">
<path d="M1 1.41145L0.699729 1.01165C0.573985 1.1061 0.5 1.25419 0.5 1.41145H1ZM10.2171 10.6416V11.1416C10.3647 11.1416 10.5048 11.0764 10.5998 10.9634L10.2171 10.6416ZM1.71601 0.873688L1.41573 0.473892L1.41573 0.473892L1.71601 0.873688ZM3.55053 1.6536L3.05438 1.71553V1.71553L3.55053 1.6536ZM3.81046 3.73594L4.30661 3.67401L3.81046 3.73594ZM3.4819 4.69489L3.1281 4.34158L3.4819 4.69489ZM10.7279 10.0342L11.1106 10.356L10.7279 10.0342ZM10.0134 8.14944L10.0859 7.65472L10.0134 8.14944ZM7.90921 7.84107L7.83671 8.33578L7.90921 7.84107ZM6.92769 8.16684L7.2815 8.52014L6.92769 8.16684ZM0.5 1.41145V2.56522H1.5V1.41145H0.5ZM9.06499 11.1416H10.2171V10.1416H9.06499V11.1416ZM0.5 2.56522C0.5 7.30116 4.33401 11.1416 9.06499 11.1416V10.1416C4.88763 10.1416 1.5 6.7502 1.5 2.56522H0.5ZM1.30027 1.81125L2.01628 1.27348L1.41573 0.473892L0.699729 1.01165L1.30027 1.81125ZM3.05438 1.71553L3.31431 3.79787L4.30661 3.67401L4.04668 1.59167L3.05438 1.71553ZM3.1281 4.34158L1.79834 5.67322L2.50594 6.37983L3.83571 5.04819L3.1281 4.34158ZM3.31431 3.79787C3.33933 3.99833 3.2705 4.19898 3.1281 4.34158L3.83571 5.04819C4.19611 4.68727 4.36979 4.18013 4.30661 3.67401L3.31431 3.79787ZM2.01628 1.27348C2.41606 0.973226 2.99211 1.21662 3.05438 1.71553L4.04668 1.59167C3.88951 0.332478 2.43138 -0.288918 1.41573 0.473892L2.01628 1.27348ZM10.5998 10.9634L11.1106 10.356L10.3452 9.71243L9.83445 10.3198L10.5998 10.9634ZM10.0859 7.65472L7.98171 7.34635L7.83671 8.33578L9.94092 8.64415L10.0859 7.65472ZM6.57389 7.81354L5.25476 9.13453L5.96237 9.84114L7.2815 8.52014L6.57389 7.81354ZM7.98171 7.34635C7.46493 7.27062 6.94295 7.44395 6.57389 7.81354L7.2815 8.52014C7.42725 8.37418 7.63311 8.30595 7.83671 8.33578L7.98171 7.34635ZM11.1106 10.356C11.9435 9.36548 11.3677 7.84257 10.0859 7.65472L9.94092 8.64415C10.4458 8.71814 10.6753 9.31983 10.3452 9.71243L11.1106 10.356Z" fill="#5E5E5E"/>
</svg>
