<svg width="38" height="16" viewBox="0 0 38 16" fill="none" xmlns="http://www.w3.org/2000/svg">
<path d="M7.48143 2.24374C7.00017 2.83054 6.23348 3.29553 5.46808 3.22742C5.36696 2.43629 5.74838 1.58882 6.18869 1.06358C6.66867 0.46499 7.50831 0.0353654 8.18924 0C8.26988 0.826503 7.95501 1.6386 7.48271 2.24374H7.48143ZM8.18156 3.38329C7.06929 3.31387 6.11445 4.0369 5.58711 4.0369C5.04825 4.0369 4.24061 3.41735 3.36129 3.4383C2.22086 3.45271 1.15466 4.11942 0.574846 5.19217C-0.632142 7.32588 0.261259 10.4852 1.42089 12.2246C1.98791 13.0839 2.66628 14.0257 3.56096 13.9995C4.407 13.9641 4.74747 13.4271 5.76758 13.4271C6.8005 13.4271 7.09361 13.9995 7.99469 13.9785C8.92009 13.9641 9.5063 13.1193 10.0733 12.26C10.7197 11.2842 10.9859 10.328 11 10.2809C10.9859 10.2599 9.2068 9.55783 9.194 7.44246C9.17992 5.66764 10.593 4.8228 10.6531 4.77433C9.85957 3.54702 8.6065 3.41735 8.18028 3.3846L8.18156 3.38329Z" fill="#949494"/>
<path d="M18.3772 8.32299V12.7025H17.0117V1.88696H20.6334C21.0657 1.87778 21.4954 1.95579 21.8979 2.1165C22.3004 2.2772 22.6676 2.51742 22.9784 2.82328C23.2923 3.11057 23.5422 3.4629 23.7111 3.8566C23.8801 4.25029 23.9643 4.67623 23.958 5.10578C23.967 5.53765 23.8841 5.96639 23.715 6.36262C23.546 6.75885 23.2947 7.1132 22.9784 7.40137C22.3452 8.01578 21.5634 8.32269 20.6334 8.3221H18.3772V8.32299ZM18.3772 3.21857V6.99401H20.6672C20.9183 7.00157 21.1681 6.95574 21.4007 6.85944C21.6334 6.76313 21.8437 6.61849 22.0183 6.43475C22.1919 6.26296 22.3299 6.05749 22.4242 5.83049C22.5184 5.60349 22.567 5.35956 22.567 5.11313C22.567 4.86671 22.5184 4.62278 22.4242 4.39578C22.3299 4.16877 22.1919 3.9633 22.0183 3.79151C21.8459 3.60389 21.6363 3.45569 21.4034 3.35674C21.1705 3.25779 20.9195 3.21034 20.6672 3.21754H18.3772V3.21843V3.21857ZM27.1046 5.06093C28.1139 5.06093 28.9107 5.33534 29.4947 5.88416C30.0788 6.43313 30.3706 7.18563 30.37 8.14181V12.7025H29.0639V11.6756H29.0046C28.4391 12.5212 27.6871 12.9442 26.7485 12.9442C25.9472 12.9442 25.2769 12.7025 24.7375 12.2193C24.4786 11.9975 24.2717 11.7197 24.1317 11.4062C23.9918 11.0927 23.9223 10.7514 23.9284 10.4071C23.9284 9.64137 24.2128 9.0324 24.7816 8.58019C25.3504 8.12799 26.1098 7.90122 27.0597 7.90019C27.8705 7.90019 28.5382 8.05107 29.063 8.35313V8.03549C29.0646 7.80081 29.0147 7.56872 28.9172 7.35605C28.8197 7.14339 28.6768 6.95547 28.4991 6.80593C28.1379 6.4744 27.6673 6.29351 27.1809 6.29931C26.4182 6.29931 25.8147 6.62666 25.3702 7.28137L24.1676 6.51078C24.8291 5.54416 25.808 5.06093 27.1046 5.06093ZM25.338 10.4374C25.3371 10.6142 25.3778 10.7886 25.4565 10.9462C25.5353 11.1037 25.6499 11.2399 25.7908 11.3433C26.0929 11.585 26.4678 11.7131 26.852 11.7058C27.4282 11.7048 27.9805 11.4715 28.3879 11.057C28.8403 10.6237 29.0663 10.1153 29.0663 9.53196C28.6407 9.18681 28.047 9.01431 27.2853 9.01431C26.7306 9.01431 26.2681 9.15034 25.8978 9.4224C25.5237 9.69857 25.338 10.0342 25.338 10.4373V10.4374ZM37.8676 5.30254L33.3081 15.9646H31.8984L33.5905 12.234L30.5922 5.30254H32.0765L34.2435 10.6184H34.2732L36.3808 5.30254H37.8676Z" fill="#949494"/>
</svg>
