<svg width="39" height="20" viewBox="0 0 39 20" fill="none" xmlns="http://www.w3.org/2000/svg">
<g clip-path="url(#clip0)">
<path d="M28.1727 4.76392C27.2873 4.44128 26.3513 4.27937 25.4089 4.28583C22.3613 4.28583 20.2089 5.82107 20.1937 8.02488C20.1746 9.64392 21.7232 10.5563 22.8946 11.0973C24.0965 11.6534 24.4984 12.0039 24.4946 12.5011C24.487 13.2573 23.5346 13.6001 22.6489 13.6001C21.4318 13.6001 20.767 13.4306 19.7442 13.0058L19.3651 12.8287L18.9327 15.3658C19.6737 15.6744 21.0089 15.9392 22.388 15.962C25.628 15.962 27.7461 14.4363 27.7708 12.0915C27.7975 10.7982 26.9594 9.82107 25.1956 9.01345C24.1232 8.48964 23.4584 8.13916 23.4584 7.60773C23.4584 7.13726 24.028 6.6344 25.2184 6.6344C26.0107 6.61523 26.7981 6.76388 27.5289 7.07059L27.8146 7.19821L28.247 4.74678L28.1727 4.76392ZM36.0813 4.49154H33.7003C32.9594 4.49154 32.4013 4.69535 32.0775 5.43059L27.4984 15.8039H30.7384L31.3861 14.103L35.3404 14.1068C35.4337 14.5049 35.7194 15.8039 35.7194 15.8039H38.5765L36.0813 4.49154ZM15.8108 4.39631H18.8984L16.967 15.7144H13.8832L15.8108 4.3925V4.39631ZM7.97273 10.6344L8.29273 12.2058L11.3099 4.49154H14.5803L9.7213 15.7887H6.45844L3.79178 6.22297C3.74859 6.06524 3.64716 5.92978 3.50797 5.84393C2.54683 5.34743 1.52843 4.97064 0.475586 4.72202L0.517491 4.48392H5.48701C6.1613 4.51059 6.70416 4.72202 6.88511 5.44202L7.97082 10.6401V10.6344H7.97273ZM32.2718 11.7887L33.5023 8.62297C33.487 8.65726 33.7556 7.96964 33.9118 7.54488L34.1232 8.52202L34.8375 11.7868H32.2699V11.7887H32.2718Z" fill="#949494"/>
</g>
<defs>
<clipPath id="clip0">
<rect width="38.8889" height="20" fill="white"/>
</clipPath>
</defs>
</svg>
