<svg width="23" height="15" viewBox="0 0 23 15" fill="none" xmlns="http://www.w3.org/2000/svg">
<g clip-path="url(#clip0)">
<path opacity="0.5" d="M15.1735 14.7087C13.7478 14.7089 12.354 14.2863 11.1685 13.4944C9.9829 12.7025 9.0588 11.5768 8.513 10.2597C7.96721 8.94256 7.82424 7.49318 8.10217 6.09481C8.38011 4.69644 9.06647 3.41189 10.0745 2.40361C11.0824 1.39532 12.3668 0.708579 13.7651 0.430227C15.1634 0.151875 16.6128 0.294413 17.9301 0.839817C19.2473 1.38522 20.3733 2.30899 21.1656 3.49432C21.9578 4.67965 22.3808 6.07329 22.381 7.49901V7.50008C22.379 9.41112 21.6191 11.2433 20.2679 12.5947C18.9167 13.9461 17.0846 14.7064 15.1735 14.7087Z" fill="#949494"/>
<path d="M8.15975 14.7087C6.73403 14.7087 5.34032 14.2859 4.15488 13.4938C2.96944 12.7017 2.04549 11.5759 1.49989 10.2587C0.954295 8.94148 0.811541 7.49208 1.08969 6.09376C1.36783 4.69543 2.05438 3.41099 3.06252 2.40285C4.07065 1.39471 5.3551 0.708162 6.75342 0.430018C8.15175 0.151873 9.60115 0.294627 10.9183 0.840227C12.2355 1.38583 13.3614 2.30977 14.1535 3.49521C14.9455 4.68065 15.3683 6.07436 15.3683 7.50008C15.3663 9.4113 14.6062 11.2437 13.2548 12.5951C11.9033 13.9466 10.071 14.7067 8.15975 14.7087Z" fill="#949494"/>
</g>
<defs>
<clipPath id="clip0">
<rect width="22.5" height="15" fill="white"/>
</clipPath>
</defs>
</svg>
