<svg width="34" height="20" viewBox="0 0 34 20" fill="none" xmlns="http://www.w3.org/2000/svg">
<path d="M33.6865 17.3165L30.791 4.283H22.368V0.0094986H0.313477V17.3165H4.53448C4.77498 18.829 6.08498 19.9905 7.66448 19.9905C9.24398 19.9905 10.5535 18.8295 10.7945 17.3165H21.368H22.368H23.5745C23.815 18.829 25.1255 19.9905 26.7055 19.9905C28.285 19.9905 29.5945 18.8295 29.8355 17.3165H33.6865ZM7.66448 18.99C6.46648 18.99 5.49098 18.0155 5.49098 16.816C5.49098 15.618 6.46598 14.642 7.66448 14.642C8.86298 14.642 9.83798 15.6175 9.83798 16.816C9.83798 18.0155 8.86298 18.99 7.66448 18.99ZM21.368 16.3165H10.7945C10.554 14.804 9.24398 13.6425 7.66448 13.6425C6.08498 13.6425 4.77548 14.8035 4.53448 16.3165H1.31348V1.0095H21.368V4.283V16.3165ZM26.7055 18.99C25.507 18.99 24.531 18.0155 24.531 16.816C24.531 15.618 25.5065 14.642 26.7055 14.642C27.9035 14.642 28.879 15.6175 28.879 16.816C28.879 18.0155 27.904 18.99 26.7055 18.99ZM26.7055 13.6425C25.1255 13.6425 23.8155 14.8035 23.5745 16.3165H22.368V5.283H29.989L30.8985 9.3785H26.5465V9.878H31.01L32.44 16.316H29.835C29.5945 14.8035 28.285 13.6425 26.7055 13.6425Z" fill="#1B1B1B"/>
</svg>
