<svg width="38" height="15" viewBox="0 0 38 15" fill="none" xmlns="http://www.w3.org/2000/svg">
<g clip-path="url(#clip0)">
<path d="M18.3772 7.32299V11.7025H17.0117V0.886956H20.6334C21.0657 0.877778 21.4954 0.955793 21.8979 1.1165C22.3004 1.2772 22.6676 1.51742 22.9784 1.82328C23.2923 2.11057 23.5422 2.4629 23.7111 2.8566C23.8801 3.25029 23.9643 3.67623 23.958 4.10578C23.967 4.53765 23.8841 4.96639 23.715 5.36262C23.546 5.75885 23.2947 6.1132 22.9784 6.40137C22.3452 7.01578 21.5634 7.32269 20.6334 7.3221H18.3772V7.32299ZM18.3772 2.21857V5.99401H20.6672C20.9183 6.00157 21.1681 5.95574 21.4007 5.85944C21.6334 5.76313 21.8437 5.61849 22.0183 5.43475C22.1919 5.26296 22.3299 5.05749 22.4242 4.83049C22.5184 4.60349 22.567 4.35956 22.567 4.11313C22.567 3.86671 22.5184 3.62278 22.4242 3.39578C22.3299 3.16877 22.1919 2.9633 22.0183 2.79151C21.8459 2.60389 21.6363 2.45569 21.4034 2.35674C21.1705 2.25779 20.9195 2.21034 20.6672 2.21754H18.3772V2.21843V2.21857ZM27.1046 4.06093C28.1139 4.06093 28.9107 4.33534 29.4947 4.88416C30.0788 5.43313 30.3706 6.18563 30.37 7.14181V11.7025H29.0639V10.6756H29.0046C28.4391 11.5212 27.6871 11.9442 26.7485 11.9442C25.9472 11.9442 25.2769 11.7025 24.7375 11.2193C24.4786 10.9975 24.2717 10.7197 24.1317 10.4062C23.9918 10.0927 23.9223 9.75138 23.9284 9.4071C23.9284 8.64137 24.2128 8.0324 24.7816 7.58019C25.3504 7.12799 26.1098 6.90122 27.0597 6.90019C27.8705 6.90019 28.5382 7.05107 29.063 7.35313V7.03549C29.0646 6.80081 29.0147 6.56872 28.9172 6.35605C28.8197 6.14339 28.6768 5.95547 28.4991 5.80593C28.1379 5.4744 27.6673 5.29351 27.1809 5.29931C26.4182 5.29931 25.8147 5.62666 25.3702 6.28137L24.1676 5.51078C24.8291 4.54416 25.808 4.06093 27.1046 4.06093ZM25.338 9.4374C25.3371 9.61417 25.3778 9.78861 25.4565 9.94618C25.5353 10.1037 25.6499 10.2399 25.7908 10.3433C26.0929 10.585 26.4678 10.7131 26.852 10.7058C27.4282 10.7048 27.9805 10.4715 28.3879 10.057C28.8403 9.62372 29.0663 9.11534 29.0663 8.53196C28.6407 8.18681 28.047 8.01431 27.2853 8.01431C26.7306 8.01431 26.2681 8.15034 25.8978 8.4224C25.5237 8.69857 25.338 9.03416 25.338 9.43725V9.4374ZM37.8676 4.30254L33.3081 14.9646H31.8984L33.5905 11.234L30.5922 4.30254H32.0765L34.2435 9.61843H34.2732L36.3808 4.30254H37.8676Z" fill="#949494"/>
<path d="M12.6069 6.16249C12.6075 5.75183 12.5733 5.34217 12.505 4.9375H6.9209V7.25787H10.1192C10.0537 7.62847 9.91518 7.98175 9.71193 8.29641C9.50868 8.61107 9.24491 8.88059 8.93652 9.08873V10.5948H10.8452C11.9628 9.5463 12.6068 7.99577 12.6068 6.16249H12.6069Z" fill="#949494"/>
<path d="M6.92098 12.0497C8.51885 12.0497 9.86433 11.5158 10.8454 10.5954L8.93675 9.08922C8.40534 9.45567 7.72118 9.665 6.92098 9.665C5.37665 9.665 4.06578 8.60555 3.59687 7.17822H1.63086V8.73032C2.12368 9.72811 2.87936 10.5669 3.81353 11.1531C4.7477 11.7392 5.82361 12.0496 6.92112 12.0497H6.92098Z" fill="#949494"/>
<path d="M3.59693 7.17803C3.34912 6.43 3.34912 5.61994 3.59693 4.87192V3.31982H1.63049C1.21591 4.15921 1 5.08562 1 6.02504C1 6.96447 1.21591 7.89087 1.63049 8.73026L3.59665 7.17803H3.59693Z" fill="#949494"/>
<path d="M6.92126 2.38522C7.76566 2.3712 8.58157 2.69583 9.19264 3.28895L10.8827 1.56932C9.81105 0.545128 8.39129 -0.01714 6.92112 0.00039829C5.82359 0.000463284 4.74768 0.310911 3.8135 0.897081C2.87933 1.48325 2.12366 2.32207 1.63086 3.3199L3.59701 4.87199C4.06592 3.44466 5.37678 2.38522 6.92112 2.38522H6.92126Z" fill="#949494"/>
</g>
<defs>
<clipPath id="clip0">
<rect width="37" height="15" fill="white" transform="translate(0.888672)"/>
</clipPath>
</defs>
</svg>
