<svg width="37" height="12" viewBox="0 0 37 12" fill="none" xmlns="http://www.w3.org/2000/svg">
<path d="M26.7644 0.525777C25.9233 0.219263 25.0341 0.0654517 24.1388 0.0715877C21.2436 0.0715877 19.1988 1.53006 19.1843 3.62368C19.1662 5.16178 20.6374 6.02854 21.7502 6.54244C22.8921 7.07082 23.2739 7.40378 23.2702 7.87606C23.263 8.59444 22.3582 8.92016 21.5168 8.92016C20.3605 8.92016 19.729 8.75911 18.7573 8.35559L18.3972 8.1873L17.9864 10.5976C18.6903 10.8907 19.9588 11.1423 21.2689 11.164C24.3469 11.164 26.3591 9.71454 26.3826 7.48702C26.408 6.25835 25.6118 5.33006 23.9361 4.56282C22.9174 4.06521 22.2859 3.73225 22.2859 3.2274C22.2859 2.78044 22.8269 2.30273 23.9579 2.30273C24.7106 2.28452 25.4586 2.42574 26.1528 2.71711L26.4242 2.83835L26.835 0.509492L26.7644 0.525777ZM34.2776 0.267016H32.0157C31.3118 0.267016 30.7816 0.460635 30.474 1.15911L26.1239 11.0138H29.2019L29.8171 9.39787L33.5737 9.40149C33.6623 9.77968 33.9338 11.0138 33.9338 11.0138H36.6481L34.2776 0.267016ZM15.0206 0.176539H17.9539L16.119 10.9287H13.1894L15.0206 0.172921V0.176539ZM7.57443 6.10273L7.87843 7.59559L10.7447 0.267016H13.8517L9.23558 10.9993H6.13586L3.60253 1.91187C3.5615 1.76203 3.46514 1.63334 3.33291 1.55178C2.41983 1.0801 1.45235 0.722161 0.452148 0.485967L0.491958 0.259777H5.21301C5.85358 0.28511 6.36929 0.485968 6.5412 1.16997L7.57263 6.10816V6.10273H7.57443ZM30.6585 7.1993L31.8275 4.19187C31.813 4.22444 32.0682 3.57121 32.2165 3.16768L32.4174 4.09597L33.096 7.19749H30.6567V7.1993H30.6585Z" fill="#1A1F71"/>
</svg>
